<?xml version="1.0" encoding="UTF-8"?>
<svg width="100pt" height="100pt" version="1.1" viewBox="0 0 100 100" xmlns="http://www.w3.org/2000/svg">
 <path d="m61 41.75c-0.011719 3.0391-2.4805 5.4961-5.5195 5.4883h-11v-11h11c1.4609 0 2.8672 0.57812 3.9023 1.6133 1.0352 1.0312 1.6172 2.4336 1.6172 3.8984z"/>
 <path d="m50 6c-11.668 0-22.859 4.6367-31.113 12.887-8.25 8.2539-12.887 19.445-12.887 31.113s4.6367 22.859 12.887 31.113c8.2539 8.25 19.445 12.887 31.113 12.887s22.859-4.6367 31.113-12.887c8.25-8.2539 12.887-19.445 12.887-31.113s-4.6367-22.859-12.887-31.113c-8.2539-8.25-19.445-12.887-31.113-12.887zm5.4883 52.25h-11v16.5h-11v-49.5h22c5.8984 0 11.344 3.1445 14.293 8.25 2.9453 5.1055 2.9453 11.395 0 16.5-2.9492 5.1055-8.3945 8.25-14.293 8.25z"/>
</svg>
